# xmcd CD database file
#
# Track frame offsets:
#	150
#	21200
#	41115
#	69695
#	91980
#	114837
#	138390
#	172020
#	186655
#	201047
#
# Disc length: 3143 seconds
#
# Revision: 0
# Processed by: cddbd v1.5PL3 Copyright (c) Steve Scherf et al.
# Submitted via: CDex 1.51
#
DISCID=900c450a
DTITLE=Peter Martin Weiss - Bass Hits
DYEAR=1998
DGENRE=Jazz
TTITLE0=Whims of Chambers
TTITLE1=Falling Grace
TTITLE2=The Man Who Never Sleeps
TTITLE3=La Verne Walk
TTITLE4=Little Waltz
TTITLE5=Del Sasser
TTITLE6=Slippery
TTITLE7=Gloria's Step
TTITLE8=Ease It
TTITLE9=If You Love Me Really Love Me
EXTD=YEAR: 1998
EXTT0=
EXTT1=
EXTT2=
EXTT3=
EXTT4=
EXTT5=
EXTT6=
EXTT7=
EXTT8=
EXTT9=
PLAYORDER=
